<svg width="17" height="17" viewBox="0 0 17 17" fill="none" xmlns="http://www.w3.org/2000/svg">
<circle cx="8.5" cy="8.5" r="8.5" fill="#D9D9D9"/>
<path d="M11.5552 9.58036C12.2151 9.58036 12.75 10.125 12.75 10.797V11.2939C12.75 11.6041 12.6548 11.9065 12.4777 12.1589C11.6564 13.3292 10.3153 13.909 8.49827 13.909C6.68081 13.909 5.34044 13.329 4.52114 12.158C4.34478 11.906 4.25 11.6042 4.25 11.2947V10.797C4.25 10.125 4.78491 9.58036 5.44475 9.58036H11.5552ZM8.49827 3.09082C9.96531 3.09082 11.1546 4.30191 11.1546 5.79585C11.1546 7.2898 9.96531 8.50089 8.49827 8.50089C7.0312 8.50089 5.84191 7.2898 5.84191 5.79585C5.84191 4.30191 7.0312 3.09082 8.49827 3.09082Z" fill="white"/>
</svg>
