<svg width="16" height="17" viewBox="0 0 16 17" fill="none" xmlns="http://www.w3.org/2000/svg">
<path d="M4.5 0C2.567 0 1 1.66494 1 3.71875C1 5.35025 1.98881 6.73632 3.36441 7.2374C3.40519 6.87629 3.4853 6.52807 3.60005 6.1977C2.66401 5.81379 2 4.84868 2 3.71875C2 2.25174 3.11929 1.0625 4.5 1.0625H8.83333C10.2141 1.0625 11.3333 2.25174 11.3333 3.71875C11.3333 5.18578 10.2141 6.375 8.83333 6.375H8.16667C7.89053 6.375 7.66667 6.61286 7.66667 6.90625C7.66667 7.19964 7.89053 7.4375 8.16667 7.4375H8.83333C10.7663 7.4375 12.3333 5.77256 12.3333 3.71875C12.3333 1.66494 10.7663 0 8.83333 0H4.5ZM13.2605 4.38883C13.1985 4.74321 13.0982 5.08335 12.9645 5.40423C13.9465 5.6967 14.6667 6.65486 14.6667 7.79167C14.6667 9.16087 13.622 10.2708 12.3333 10.2708H7.66667C6.378 10.2708 5.33333 9.16087 5.33333 7.79167C5.33333 6.42246 6.378 5.3125 7.66667 5.3125H8.5C8.77613 5.3125 9 5.07464 9 4.78125C9 4.48786 8.77613 4.25 8.5 4.25H7.66667C5.82572 4.25 4.33333 5.83567 4.33333 7.79167C4.33333 9.74766 5.82572 11.3333 7.66667 11.3333H12.3333C14.1743 11.3333 15.6667 9.74766 15.6667 7.79167C15.6667 6.17752 14.6503 4.81553 13.2605 4.38883Z" fill="#ADADAD"/>
</svg>
