<svg width="17" height="18" viewBox="0 0 17 18" fill="none" xmlns="http://www.w3.org/2000/svg">
<path d="M4.1385 3.42591C6.54712 0.875607 10.4523 0.875607 12.8609 3.42591C15.2695 5.97622 15.2695 10.1111 12.8609 12.6614L12.0201 13.5418C11.4004 14.1858 10.5964 15.0138 9.60762 16.0259C8.98981 16.6585 8.00962 16.6584 7.39188 16.0258L4.91899 13.4788C4.6082 13.1557 4.34805 12.8833 4.1385 12.6614C1.72988 10.1111 1.72988 5.97622 4.1385 3.42591ZM12.1096 4.22141C10.1159 2.11044 6.88349 2.11044 4.8898 4.22141C2.8961 6.33237 2.8961 9.75495 4.8898 11.8659L5.94314 12.9665C6.5232 13.5676 7.25241 14.3179 8.13053 15.2171C8.33644 15.4279 8.66313 15.428 8.86911 15.2172L11.2738 12.7411C11.606 12.3958 11.8846 12.1041 12.1096 11.8659C14.1033 9.75495 14.1033 6.33237 12.1096 4.22141ZM8.49971 5.9989C9.67392 5.9989 10.6258 7.00678 10.6258 8.25007C10.6258 9.49335 9.67392 10.5012 8.49971 10.5012C7.32551 10.5012 6.3736 9.49335 6.3736 8.25007C6.3736 7.00678 7.32551 5.9989 8.49971 5.9989ZM8.49971 7.1239C7.91229 7.1239 7.43608 7.6281 7.43608 8.25007C7.43608 8.87205 7.91229 9.3762 8.49971 9.3762C9.08713 9.3762 9.56328 8.87205 9.56328 8.25007C9.56328 7.6281 9.08713 7.1239 8.49971 7.1239Z" fill="#ADADAD"/>
</svg>
