<svg width="43" height="43" viewBox="0 0 43 43" fill="none" xmlns="http://www.w3.org/2000/svg">
<rect width="43" height="43" rx="21.5" fill="#3C75D3"/>
<path d="M30.447 22.1962C34.055 22.1962 36.98 25.1207 36.98 28.7283C36.98 32.3358 34.055 35.2603 30.447 35.2603C26.8389 35.2603 23.914 32.3358 23.914 28.7283C23.914 25.1207 26.8389 22.1962 30.447 22.1962ZM23.9404 24.5707C23.1718 25.7708 22.7262 27.1975 22.7262 28.7283C22.7262 30.681 23.4513 32.4644 24.647 33.8239C23.6942 33.9911 22.6572 34.074 21.5384 34.074C18.1062 34.074 15.4469 33.2942 13.5905 31.6983C12.6062 30.8522 12.04 29.619 12.04 28.3211V27.2436C12.04 25.7678 13.2366 24.5714 14.7126 24.5714L23.9404 24.5707ZM30.447 24.5705L30.3403 24.5802C30.0978 24.6241 29.9067 24.8153 29.8626 25.0577L29.8531 25.1644L29.8527 28.1335L26.8807 28.1344L26.774 28.1441C26.5315 28.188 26.3404 28.3791 26.2965 28.6215L26.2868 28.7283L26.2965 28.835C26.3404 29.0774 26.5315 29.2685 26.774 29.3125L26.8807 29.3221L29.8538 29.3211L29.8544 32.2954L29.8639 32.4021C29.908 32.6445 30.0991 32.8356 30.3416 32.8796L30.4483 32.8892L30.555 32.8796C30.7974 32.8356 30.9887 32.6445 31.0326 32.4021L31.0423 32.2954L31.0417 29.3211L34.0158 29.3221L34.1226 29.3125C34.3651 29.2685 34.5562 29.0774 34.6002 28.835L34.6097 28.7283L34.6002 28.6215C34.5562 28.3791 34.3651 28.188 34.1226 28.1441L34.0158 28.1344L31.0405 28.1335L31.041 25.1644L31.0313 25.0577C30.9874 24.8153 30.7961 24.6241 30.5537 24.5802L30.447 24.5705ZM21.5388 10.3203C21.9898 10.3203 22.3625 10.6554 22.4214 11.0902L22.4296 11.211L22.4287 12.1006L26.5866 12.1012C28.0626 12.1012 29.2592 13.2976 29.2592 14.7734V20.1233C29.2592 20.4809 29.1889 20.8222 29.0615 21.134C27.7248 21.3747 26.5082 21.9608 25.5066 22.7957L16.4901 22.7955C15.0141 22.7955 13.8175 21.599 13.8175 20.1233V14.7734C13.8175 13.2976 15.0141 12.1012 16.4901 12.1012L20.647 12.1006L20.6479 11.211C20.6479 10.8011 20.9249 10.4558 21.3019 10.3521L21.4179 10.3284L21.5388 10.3203ZM18.8649 15.6641C18.0454 15.6641 17.381 16.3284 17.381 17.1478C17.381 17.9673 18.0454 18.6316 18.8649 18.6316C19.6845 18.6316 20.3489 17.9673 20.3489 17.1478C20.3489 16.3284 19.6845 15.6641 18.8649 15.6641ZM24.2015 15.6641C23.3819 15.6641 22.7176 16.3284 22.7176 17.1478C22.7176 17.9673 23.3819 18.6316 24.2015 18.6316C25.0211 18.6316 25.6854 17.9673 25.6854 17.1478C25.6854 16.3284 25.0211 15.6641 24.2015 15.6641Z" fill="white"/>
</svg>
