<svg width="44" height="44" viewBox="0 0 44 44" fill="none" xmlns="http://www.w3.org/2000/svg">
<rect width="44" height="44" rx="22" fill="#424242"/>
<path d="M29.9077 26.7965C31.6156 26.7965 33 28.2062 33 29.9455V31.2315C33 32.0344 32.7536 32.8171 32.2952 33.4703C30.1695 36.4993 26.6984 38 21.9955 38C17.2915 38 13.8223 36.4988 11.7018 33.4681C11.2453 32.8157 11 32.0347 11 31.2336V29.9455C11 28.2062 12.3845 26.7965 14.0923 26.7965H29.9077ZM21.9955 10C25.7926 10 28.8707 13.1346 28.8707 17.0013C28.8707 20.8679 25.7926 24.0025 21.9955 24.0025C18.1984 24.0025 15.1202 20.8679 15.1202 17.0013C15.1202 13.1346 18.1984 10 21.9955 10Z" fill="white" fill-opacity="0.74"/>
</svg>
