<svg width="15" height="16" viewBox="0 0 15 16" fill="none" xmlns="http://www.w3.org/2000/svg">
<path d="M1.47949 8C1.47949 4.47919 4.17511 1.625 7.50033 1.625C10.8255 1.625 13.5212 4.47919 13.5212 8C13.5212 11.5208 10.8255 14.375 7.50033 14.375C4.17511 14.375 1.47949 11.5208 1.47949 8ZM7.50033 0.5C3.58831 0.5 0.416992 3.85786 0.416992 8C0.416992 12.1421 3.58831 15.5 7.50033 15.5C11.4123 15.5 14.5837 12.1421 14.5837 8C14.5837 3.85786 11.4123 0.5 7.50033 0.5ZM7.49544 3.9862C7.4603 3.71175 7.23789 3.5 6.96908 3.5C6.67583 3.5 6.43783 3.752 6.43783 4.0625V8.5625L6.44271 8.63877C6.47785 8.91327 6.70026 9.125 6.96908 9.125H9.80241L9.87445 9.11983C10.1337 9.08263 10.3337 8.84713 10.3337 8.5625C10.3337 8.252 10.0957 8 9.80241 8H7.50033V4.0625L7.49544 3.9862Z" fill="#ADADAD"/>
</svg>
